<?xml version="1.0" encoding="UTF-8" standalone="no"?>
<svg width="48px" height="48px" viewBox="0 0 48 48" version="1.1" xmlns="http://www.w3.org/2000/svg" xmlns:xlink="http://www.w3.org/1999/xlink">
    <!-- Generator: Sketch 46.2 (44496) - http://www.bohemiancoding.com/sketch -->
    <title>component_off</title>
    <desc>Created with Sketch.</desc>
    <defs></defs>
    <g id="Page-1" stroke="none" stroke-width="1" fill="none" fill-rule="evenodd">
        <g id="component_off" fill="#818181">
            <g id="Group" transform="translate(0.000000, 4.000000)">
                <path d="M1.6,38.9270084 L46.4,38.9270084 L46.4,2.12794579 L1.6,2.12794579 L1.6,38.9270084 Z M47.2,40.5285676 L0.8,40.5285676 C0.352,40.5285676 0,40.1765765 0,39.7285879 L0,1.32956613 C0,0.879977583 0.352,0.52798655 0.8,0.52798655 L47.2,0.52798655 C47.648,0.52798655 48,0.879977583 48,1.32956613 L48,39.7285879 C48,40.1765765 47.648,40.5285676 47.2,40.5285676 L47.2,40.5285676 Z" id="Fill-8598"></path>
                <path d="M46.4,10.127742 L1.6,10.127742 C1.152,10.127742 0.8,9.77735093 0.8,9.32936234 C0.8,8.87977379 1.152,8.52938272 1.6,8.52938272 L46.4,8.52938272 C46.848,8.52938272 47.2,8.87977379 47.2,9.32936234 C47.2,9.77735093 46.848,10.127742 46.4,10.127742" id="Fill-8599"></path>
                <path d="M6.384,5.72945405 C6.384,6.28783982 5.936,6.73582841 5.376,6.73582841 C4.832,6.73582841 4.384,6.28783982 4.384,5.72945405 C4.384,5.16946831 4.832,4.73747932 5.376,4.73747932 C5.936,4.73747932 6.384,5.16946831 6.384,5.72945405" id="Fill-8600"></path>
                <path d="M10.384,5.72945405 C10.384,6.28783982 9.936,6.73582841 9.376,6.73582841 C8.832,6.73582841 8.384,6.28783982 8.384,5.72945405 C8.384,5.16946831 8.832,4.73747932 9.376,4.73747932 C9.936,4.73747932 10.384,5.16946831 10.384,5.72945405" id="Fill-8601"></path>
                <path d="M14.384,5.72945405 C14.384,6.28783982 13.936,6.73582841 13.376,6.73582841 C12.832,6.73582841 12.384,6.28783982 12.384,5.72945405 C12.384,5.16946831 12.832,4.73747932 13.376,4.73747932 C13.936,4.73747932 14.384,5.16946831 14.384,5.72945405" id="Fill-8602"></path>
                <path d="M29.296,24.8633666 C28.864,24.8633666 28.496,24.5129755 28.496,24.064987 L28.496,22.5594253 C28.496,22.1274363 28.864,21.7594457 29.296,21.7594457 C29.744,21.7594457 30.096,22.1274363 30.096,22.5594253 L30.096,24.064987 C30.096,24.5129755 29.744,24.8633666 29.296,24.8633666" id="Fill-8603"></path>
                <path d="M29.296,35.6966906 C28.864,35.6966906 28.496,35.3271001 28.496,34.896711 L28.496,33.3927493 C28.496,32.9431608 28.864,32.5911698 29.296,32.5911698 C29.744,32.5911698 30.096,32.9431608 30.096,33.3927493 L30.096,34.896711 C30.096,35.3271001 29.744,35.6966906 29.296,35.6966906" id="Fill-8604"></path>
                <path d="M24.64,29.5352476 L23.136,29.5352476 C22.688,29.5352476 22.336,29.1688569 22.336,28.7368679 C22.336,28.2888794 22.688,27.9352884 23.136,27.9352884 L24.64,27.9352884 C25.072,27.9352884 25.44,28.2888794 25.44,28.7368679 C25.44,29.1688569 25.072,29.5352476 24.64,29.5352476" id="Fill-8605"></path>
                <path d="M35.472,29.5352476 L33.968,29.5352476 C33.52,29.5352476 33.168,29.1688569 33.168,28.7368679 C33.168,28.2888794 33.52,27.9352884 33.968,27.9352884 L35.472,27.9352884 C35.904,27.9352884 36.272,28.2888794 36.272,28.7368679 C36.272,29.1688569 35.904,29.5352476 35.472,29.5352476" id="Fill-8606"></path>
                <path d="M26,26.2249319 C25.792,26.2249319 25.6,26.1593336 25.44,26.0009376 L24.384,24.9289649 C24.064,24.6233727 24.064,24.1113858 24.384,23.8073935 C24.688,23.4890016 25.2,23.4890016 25.504,23.8073935 L26.576,24.8633666 C26.88,25.1849584 26.88,25.6793458 26.576,26.0009376 C26.416,26.1593336 26.208,26.2249319 26,26.2249319" id="Fill-8607"></path>
                <path d="M33.664,33.8871367 C33.456,33.8871367 33.248,33.8071388 33.088,33.6487428 L32.032,32.5911698 C31.728,32.2711779 31.728,31.7767905 32.032,31.4567987 C32.352,31.1512064 32.848,31.1512064 33.168,31.4567987 L34.224,32.5287713 C34.544,32.8327636 34.544,33.3431506 34.224,33.6487428 C34.064,33.8071388 33.872,33.8871367 33.664,33.8871367" id="Fill-8608"></path>
                <path d="M24.944,33.8871367 C24.736,33.8871367 24.528,33.8071388 24.384,33.6487428 C24.064,33.3431506 24.064,32.8327636 24.384,32.5287713 L25.44,31.4567987 C25.744,31.1512064 26.256,31.1512064 26.576,31.4567987 C26.88,31.7767905 26.88,32.2711779 26.576,32.5911698 L25.504,33.6487428 C25.344,33.8071388 25.152,33.8871367 24.944,33.8871367" id="Fill-8609"></path>
                <path d="M32.592,26.2249319 C32.4,26.2249319 32.192,26.1593336 32.032,26.0009376 C31.728,25.6793458 31.728,25.1849584 32.032,24.8633666 L33.088,23.8073935 C33.408,23.4890016 33.92,23.4890016 34.224,23.8073935 C34.544,24.1113858 34.544,24.6233727 34.224,24.9289649 L33.168,26.0009376 C33.008,26.1593336 32.8,26.2249319 32.592,26.2249319" id="Fill-8610"></path>
                <path d="M29.296,24.8633666 C27.264,24.8633666 25.6,26.5289242 25.6,28.5592725 C25.6,30.6072203 27.264,32.2551783 29.296,32.2551783 C31.344,32.2551783 33.008,30.6072203 33.008,28.5592725 C33.008,26.5289242 31.344,24.8633666 29.296,24.8633666 L29.296,24.8633666 Z M29.296,33.8567375 C26.384,33.8567375 24,31.4871979 24,28.5592725 C24,25.6473466 26.384,23.2650073 29.296,23.2650073 C32.224,23.2650073 34.608,25.6473466 34.608,28.5592725 C34.608,31.4871979 32.224,33.8567375 29.296,33.8567375 L29.296,33.8567375 Z" id="Fill-8611"></path>
                <path d="M23.296,16.369183 C22.864,16.369183 22.496,15.9995924 22.496,15.5676034 L22.496,14.5596291 C22.496,14.1292401 22.864,13.7596495 23.296,13.7596495 C23.744,13.7596495 24.096,14.1292401 24.096,14.5596291 L24.096,15.5676034 C24.096,15.9995924 23.744,16.369183 23.296,16.369183" id="Fill-8612"></path>
                <path d="M23.296,23.3594049 C22.864,23.3594049 22.496,23.0074139 22.496,22.5594253 L22.496,21.5674506 C22.496,21.119462 22.864,20.7690709 23.296,20.7690709 C23.744,20.7690709 24.096,21.119462 24.096,21.5674506 L24.096,22.5594253 C24.096,23.0074139 23.744,23.3594049 23.296,23.3594049" id="Fill-8613"></path>
                <path d="M20.304,19.3595068 L19.296,19.3595068 C18.864,19.3595068 18.496,19.0075158 18.496,18.5595272 C18.496,18.1291382 18.864,17.7595476 19.296,17.7595476 L20.304,17.7595476 C20.736,17.7595476 21.104,18.1291382 21.104,18.5595272 C21.104,19.0075158 20.736,19.3595068 20.304,19.3595068" id="Fill-8614"></path>
                <path d="M27.296,19.3595068 L26.304,19.3595068 C25.856,19.3595068 25.504,19.0075158 25.504,18.5595272 C25.504,18.1291382 25.856,17.7595476 26.304,17.7595476 L27.296,17.7595476 C27.744,17.7595476 28.096,18.1291382 28.096,18.5595272 C28.096,19.0075158 27.744,19.3595068 27.296,19.3595068" id="Fill-8615"></path>
                <path d="M21.184,17.2475606 C20.976,17.2475606 20.768,17.1691626 20.608,17.0075667 L19.904,16.3051846 C19.6,15.9835928 19.6,15.4876055 19.904,15.1692136 C20.224,14.8652213 20.72,14.8652213 21.04,15.1692136 L21.744,15.8715957 C22.064,16.1931875 22.064,16.7051744 21.744,17.0075667 C21.584,17.1691626 21.376,17.2475606 21.184,17.2475606" id="Fill-8616"></path>
                <path d="M26.128,22.1930346 C25.92,22.1930346 25.712,22.1130367 25.568,21.9514408 L24.864,21.2490587 C24.544,20.9274669 24.544,20.4330795 24.864,20.1130876 C25.168,19.8074954 25.68,19.8074954 25.984,20.1130876 L26.688,20.8330693 C27.008,21.1354616 27.008,21.6490485 26.688,21.9514408 C26.544,22.1130367 26.336,22.1930346 26.128,22.1930346" id="Fill-8617"></path>
                <path d="M20.464,22.1930346 C20.272,22.1930346 20.064,22.1130367 19.904,21.9514408 C19.6,21.6490485 19.6,21.1354616 19.904,20.8330693 L20.608,20.1130876 C20.928,19.8074954 21.424,19.8074954 21.744,20.1130876 C22.064,20.4330795 22.064,20.9274669 21.744,21.2490587 L21.04,21.9514408 C20.88,22.1130367 20.672,22.1930346 20.464,22.1930346" id="Fill-8618"></path>
                <path d="M25.424,17.2475606 C25.216,17.2475606 25.008,17.1691626 24.864,17.0075667 C24.544,16.7051744 24.544,16.1931875 24.864,15.8715957 L25.568,15.1692136 C25.872,14.8652213 26.384,14.8652213 26.688,15.1692136 C27.008,15.4876055 27.008,15.9835928 26.688,16.3051846 L25.984,17.0075667 C25.824,17.1691626 25.632,17.2475606 25.424,17.2475606" id="Fill-8619"></path>
                <path d="M23.296,16.369183 C22.08,16.369183 21.104,17.3435582 21.104,18.5595272 C21.104,19.7770962 22.08,20.7690709 23.296,20.7690709 C24.512,20.7690709 25.504,19.7770962 25.504,18.5595272 C25.504,17.3435582 24.512,16.369183 23.296,16.369183 L23.296,16.369183 Z M23.296,22.3690302 C21.2,22.3690302 19.504,20.6570738 19.504,18.5595272 C19.504,16.4635806 21.2,14.7692238 23.296,14.7692238 C25.392,14.7692238 27.104,16.4635806 27.104,18.5595272 C27.104,20.6570738 25.392,22.3690302 23.296,22.3690302 L23.296,22.3690302 Z" id="Fill-8620"></path>
                <path d="M17.296,28.3688773 C16.864,28.3688773 16.496,27.9992867 16.496,27.5672977 L16.496,26.5593234 C16.496,26.1289344 16.864,25.7593438 17.296,25.7593438 C17.744,25.7593438 18.096,26.1289344 18.096,26.5593234 L18.096,27.5672977 C18.096,27.9992867 17.744,28.3688773 17.296,28.3688773" id="Fill-8621"></path>
                <path d="M17.296,35.3590992 C16.864,35.3590992 16.496,35.0071082 16.496,34.5591196 L16.496,33.5671449 C16.496,33.1191563 16.864,32.7687652 17.296,32.7687652 C17.744,32.7687652 18.096,33.1191563 18.096,33.5671449 L18.096,34.5591196 C18.096,35.0071082 17.744,35.3590992 17.296,35.3590992" id="Fill-8622"></path>
                <path d="M14.304,31.3592011 L13.296,31.3592011 C12.864,31.3592011 12.496,31.0072101 12.496,30.5592215 C12.496,30.1288325 12.864,29.7592419 13.296,29.7592419 L14.304,29.7592419 C14.736,29.7592419 15.104,30.1288325 15.104,30.5592215 C15.104,31.0072101 14.736,31.3592011 14.304,31.3592011" id="Fill-8623"></path>
                <path d="M21.296,31.3592011 L20.304,31.3592011 C19.856,31.3592011 19.504,31.0072101 19.504,30.5592215 C19.504,30.1288325 19.856,29.7592419 20.304,29.7592419 L21.296,29.7592419 C21.744,29.7592419 22.096,30.1288325 22.096,30.5592215 C22.096,31.0072101 21.744,31.3592011 21.296,31.3592011" id="Fill-8624"></path>
                <path d="M15.184,29.2472549 C14.976,29.2472549 14.768,29.1688569 14.608,29.0072611 L13.904,28.3048789 C13.6,27.9832871 13.6,27.4872998 13.904,27.1689079 C14.224,26.8649156 14.72,26.8649156 15.04,27.1689079 L15.744,27.87129 C16.064,28.1928818 16.064,28.7048688 15.744,29.0072611 C15.584,29.1688569 15.376,29.2472549 15.184,29.2472549" id="Fill-8625"></path>
                <path d="M20.128,34.192729 C19.92,34.192729 19.712,34.112731 19.568,33.9511351 L18.864,33.248753 C18.544,32.9271612 18.544,32.4327738 18.864,32.1127819 C19.168,31.8071897 19.68,31.8071897 19.984,32.1127819 L20.688,32.8327636 C21.008,33.1351559 21.008,33.6487428 20.688,33.9511351 C20.544,34.112731 20.336,34.192729 20.128,34.192729" id="Fill-8626"></path>
                <path d="M14.464,34.192729 C14.272,34.192729 14.064,34.112731 13.904,33.9511351 C13.6,33.6487428 13.6,33.1351559 13.904,32.8327636 L14.608,32.1127819 C14.928,31.8071897 15.424,31.8071897 15.744,32.1127819 C16.064,32.4327738 16.064,32.9271612 15.744,33.248753 L15.04,33.9511351 C14.88,34.112731 14.672,34.192729 14.464,34.192729" id="Fill-8627"></path>
                <path d="M19.424,29.2472549 C19.216,29.2472549 19.008,29.1688569 18.864,29.0072611 C18.544,28.7048688 18.544,28.1928818 18.864,27.87129 L19.568,27.1689079 C19.872,26.8649156 20.384,26.8649156 20.688,27.1689079 C21.008,27.4872998 21.008,27.9832871 20.688,28.3048789 L19.984,29.0072611 C19.824,29.1688569 19.632,29.2472549 19.424,29.2472549" id="Fill-8628"></path>
                <path d="M17.296,28.3688773 C16.08,28.3688773 15.104,29.3432525 15.104,30.5592215 C15.104,31.7767905 16.08,32.7687652 17.296,32.7687652 C18.512,32.7687652 19.504,31.7767905 19.504,30.5592215 C19.504,29.3432525 18.512,28.3688773 17.296,28.3688773 L17.296,28.3688773 Z M17.296,34.3687245 C15.2,34.3687245 13.504,32.6567681 13.504,30.5592215 C13.504,28.4632749 15.2,26.7689181 17.296,26.7689181 C19.392,26.7689181 21.104,28.4632749 21.104,30.5592215 C21.104,32.6567681 19.392,34.3687245 17.296,34.3687245 L17.296,34.3687245 Z" id="Fill-8629"></path>
            </g>
        </g>
    </g>
</svg>