<?xml version="1.0" encoding="UTF-8" standalone="no"?>
<svg width="48px" height="48px" viewBox="0 0 48 48" version="1.1" xmlns="http://www.w3.org/2000/svg" xmlns:xlink="http://www.w3.org/1999/xlink">
    <!-- Generator: Sketch 46.2 (44496) - http://www.bohemiancoding.com/sketch -->
    <title>component_on</title>
    <desc>Created with Sketch.</desc>
    <defs></defs>
    <g id="Page-1" stroke="none" stroke-width="1" fill="none" fill-rule="evenodd">
        <g id="component_on" fill="#4D93E4">
            <g id="Group" transform="translate(0.000000, 4.000000)">
                <path d="M20.922,15.342 C20.922,16.44 21.82,17.342 22.922,17.342 C24.026,17.342 24.922,16.44 24.922,15.342 C24.922,14.24 24.026,13.34 22.922,13.34 C21.82,13.34 20.922,14.24 20.922,15.342" id="Fill-6071"></path>
                <path d="M35.086,28.5 L34.292,28.5 C34.128,29.262 33.808,29.94 33.376,30.54 L33.988,31.16 C34.378,31.54 34.378,32.18 33.988,32.56 C33.792,32.762 33.536,32.86 33.282,32.86 C33.024,32.86 32.77,32.762 32.574,32.56 L31.938,31.94 C31.336,32.32 30.656,32.6 29.922,32.74 L29.922,33.66 C29.922,34.22 29.476,34.66 28.922,34.66 C28.372,34.66 27.922,34.22 27.922,33.66 L27.922,32.74 C27.192,32.6 26.508,32.32 25.91,31.94 L25.272,32.56 C25.076,32.762 24.82,32.86 24.564,32.86 C24.308,32.86 24.052,32.762 23.858,32.56 C23.466,32.18 23.466,31.54 23.858,31.16 L24.468,30.54 C24.036,29.94 23.714,29.262 23.552,28.5 L22.758,28.5 C22.208,28.5 21.758,28.06 21.758,27.5 C21.758,26.962 22.208,26.5 22.758,26.5 L23.506,26.5 C23.628,25.722 23.906,24.98 24.332,24.32 L23.858,23.86 C23.466,23.46 23.466,22.82 23.858,22.44 C24.248,22.042 24.88,22.042 25.272,22.44 L25.72,22.88 C26.368,22.422 27.11,22.1 27.922,21.94 L27.922,21.342 C27.922,20.78 28.372,20.342 28.922,20.342 C29.476,20.342 29.922,20.78 29.922,21.342 L29.922,21.94 C30.734,22.1 31.48,22.422 32.126,22.88 L32.574,22.44 C32.964,22.042 33.598,22.042 33.988,22.44 C34.378,22.82 34.378,23.46 33.988,23.86 L33.516,24.32 C33.938,24.98 34.214,25.722 34.338,26.5 L35.086,26.5 C35.64,26.5 36.086,26.962 36.086,27.5 C36.086,28.06 35.64,28.5 35.086,28.5 L35.086,28.5 Z M20.094,19.16 C19.838,19.16 19.582,19.06 19.386,18.882 C18.996,18.48 18.996,17.86 19.386,17.46 L19.488,17.36 C19.304,17.04 19.16,16.7 19.064,16.34 L18.922,16.34 C18.372,16.34 17.922,15.9 17.922,15.342 C17.922,14.78 18.372,14.342 18.922,14.342 L19.064,14.342 C19.16,13.98 19.304,13.64 19.488,13.322 L19.386,13.22 C18.996,12.82 18.996,12.2 19.386,11.802 C19.778,11.422 20.41,11.422 20.8,11.802 L20.902,11.9 C21.218,11.72 21.558,11.58 21.922,11.48 L21.922,11.342 C21.922,10.78 22.372,10.34 22.922,10.34 C23.476,10.34 23.922,10.78 23.922,11.342 L23.922,11.48 C24.286,11.58 24.626,11.72 24.942,11.9 L25.042,11.802 C25.434,11.422 26.066,11.422 26.458,11.802 C26.848,12.2 26.848,12.82 26.458,13.22 L26.356,13.322 C26.542,13.64 26.688,13.98 26.782,14.342 L26.922,14.342 C27.476,14.342 27.922,14.78 27.922,15.342 C27.922,15.9 27.476,16.34 26.922,16.34 L26.782,16.34 C26.688,16.7 26.542,17.04 26.356,17.36 L26.458,17.46 C26.848,17.86 26.848,18.48 26.458,18.882 C26.262,19.06 26.006,19.16 25.75,19.16 C25.496,19.16 25.238,19.06 25.042,18.882 L24.942,18.782 C24.626,18.96 24.286,19.1 23.922,19.2 L23.922,19.34 C23.922,19.9 23.476,20.342 22.922,20.342 C22.372,20.342 21.922,19.9 21.922,19.34 L21.922,19.2 C21.558,19.1 21.218,18.96 20.902,18.782 L20.8,18.882 C20.606,19.06 20.352,19.16 20.094,19.16 L20.094,19.16 Z M18.922,30.342 L18.782,30.342 C18.688,30.7 18.542,31.042 18.356,31.36 L18.458,31.462 C18.848,31.862 18.848,32.48 18.458,32.88 C18.262,33.062 18.006,33.16 17.75,33.16 C17.496,33.16 17.238,33.062 17.042,32.88 L16.942,32.78 C16.626,32.962 16.286,33.102 15.922,33.2 L15.922,33.342 C15.922,33.9 15.476,34.34 14.922,34.34 C14.372,34.34 13.922,33.9 13.922,33.342 L13.922,33.2 C13.558,33.102 13.218,32.962 12.902,32.78 L12.8,32.88 C12.606,33.062 12.352,33.16 12.094,33.16 C11.838,33.16 11.582,33.062 11.386,32.88 C10.996,32.48 10.996,31.862 11.386,31.462 L11.488,31.36 C11.302,31.042 11.16,30.7 11.064,30.342 L10.922,30.342 C10.372,30.342 9.922,29.9 9.922,29.342 C9.922,28.78 10.372,28.34 10.922,28.34 L11.064,28.34 C11.16,27.98 11.302,27.642 11.488,27.32 L11.386,27.222 C10.996,26.822 10.996,26.2 11.386,25.802 C11.778,25.422 12.41,25.422 12.8,25.802 L12.902,25.9 C13.218,25.722 13.558,25.58 13.922,25.48 L13.922,25.34 C13.922,24.782 14.372,24.342 14.922,24.342 C15.476,24.342 15.922,24.782 15.922,25.34 L15.922,25.48 C16.286,25.58 16.626,25.722 16.942,25.9 L17.042,25.802 C17.434,25.422 18.066,25.422 18.458,25.802 C18.848,26.2 18.848,26.822 18.458,27.222 L18.356,27.32 C18.542,27.642 18.688,27.98 18.782,28.34 L18.922,28.34 C19.476,28.34 19.922,28.78 19.922,29.342 C19.922,29.9 19.476,30.342 18.922,30.342 L18.922,30.342 Z M0.004,9.5 L0.004,38.5 C0.004,39.062 0.454,39.5 1.004,39.5 L47.004,39.5 C47.558,39.5 48.004,39.062 48.004,38.5 L48.004,9.5 L0.004,9.5 L0.004,9.5 Z" id="Fill-6072"></path>
                <path d="M32.422,27.342 C32.422,25.4 30.852,23.84 28.922,23.84 C26.992,23.84 25.422,25.4 25.422,27.342 C25.422,29.262 26.992,30.842 28.922,30.842 C30.852,30.842 32.422,29.262 32.422,27.342" id="Fill-6073"></path>
                <path d="M5.004,3.5 C5.558,3.5 6.004,3.96 6.004,4.5 C6.004,5.06 5.558,5.5 5.004,5.5 C4.454,5.5 4.004,5.06 4.004,4.5 C4.004,3.96 4.454,3.5 5.004,3.5 L5.004,3.5 Z M9.004,3.5 C9.558,3.5 10.004,3.96 10.004,4.5 C10.004,5.06 9.558,5.5 9.004,5.5 C8.454,5.5 8.004,5.06 8.004,4.5 C8.004,3.96 8.454,3.5 9.004,3.5 L9.004,3.5 Z M13.004,3.5 C13.558,3.5 14.004,3.96 14.004,4.5 C14.004,5.06 13.558,5.5 13.004,5.5 C12.454,5.5 12.004,5.06 12.004,4.5 C12.004,3.96 12.454,3.5 13.004,3.5 L13.004,3.5 Z M48.004,7.5 L48.004,0.5 C48.004,-0.038 47.558,-0.5 47.004,-0.5 L1.004,-0.5 C0.454,-0.5 0.004,-0.038 0.004,0.5 L0.004,7.5 L48.004,7.5 L48.004,7.5 Z" id="Fill-6074"></path>
                <path d="M16.922,29.342 C16.922,28.24 16.026,27.342 14.922,27.342 C13.82,27.342 12.922,28.24 12.922,29.342 C12.922,30.44 13.82,31.34 14.922,31.34 C16.026,31.34 16.922,30.44 16.922,29.342" id="Fill-6075"></path>
            </g>
        </g>
    </g>
</svg>