<?xml version="1.0" encoding="UTF-8" standalone="no"?>
<svg width="48px" height="48px" viewBox="0 0 48 48" version="1.1" xmlns="http://www.w3.org/2000/svg" xmlns:xlink="http://www.w3.org/1999/xlink">
    <!-- Generator: Sketch 46.2 (44496) - http://www.bohemiancoding.com/sketch -->
    <title>donation_off</title>
    <desc>Created with Sketch.</desc>
    <defs></defs>
    <g id="Page-1" stroke="none" stroke-width="1" fill="none" fill-rule="evenodd">
        <g id="donation_off" fill="#818181">
            <g id="Fill-5060" transform="translate(3.000000, 4.000000)">
                <path d="M13.5168,1.31356654 C8.4736,1.31356654 4.144,4.88147565 2.488,10.4173346 C-0.5344,20.5130774 7.4944,32.5287713 21.1808,38.4806197 C34.8704,32.5287713 42.8976,20.5130774 39.8768,10.4173346 C38.2224,4.88147565 33.8912,1.31356654 28.8448,1.31356654 C26.3088,1.31356654 23.8336,2.22554331 21.6848,3.96789892 C21.3904,4.20789281 20.9696,4.20789281 20.6768,3.96789892 C18.5296,2.22554331 16.0528,1.31356654 13.5168,1.31356654 L13.5168,1.31356654 Z M21.1808,40.1429774 C21.0752,40.1429774 20.968,40.1269778 20.8688,40.080579 C5.9968,33.76074 -2.376,21.0890628 0.9536,9.96774608 C2.8176,3.72950499 7.7504,-0.286392704 13.5168,-0.286392704 C16.2272,-0.286392704 18.864,0.607984512 21.1808,2.33594049 C23.5008,0.607984512 26.136,-0.286392704 28.8448,-0.286392704 C34.6144,-0.286392704 39.5456,3.72950499 41.4096,9.96774608 C44.7408,21.0890628 36.3648,33.76074 21.4944,40.080579 C21.3936,40.1269778 21.288,40.1429774 21.1808,40.1429774 L21.1808,40.1429774 Z"></path>
            </g>
        </g>
    </g>
</svg>