<?xml version="1.0" encoding="UTF-8" standalone="no"?>
<svg width="48px" height="48px" viewBox="0 0 48 48" version="1.1" xmlns="http://www.w3.org/2000/svg" xmlns:xlink="http://www.w3.org/1999/xlink">
    <!-- Generator: Sketch 46.2 (44496) - http://www.bohemiancoding.com/sketch -->
    <title>example_off</title>
    <desc>Created with Sketch.</desc>
    <defs></defs>
    <g id="Page-1" stroke="none" stroke-width="1" fill="none" fill-rule="evenodd">
        <g id="example_off" fill="#818181">
            <g id="Group" transform="translate(0.000000, 4.000000)">
                <path d="M1.6,38.9270084 L46.4,38.9270084 L46.4,2.12794579 L1.6,2.12794579 L1.6,38.9270084 Z M47.2,40.5285676 L0.8,40.5285676 C0.3584,40.5285676 0,40.1765765 0,39.7285879 L0,1.32956613 C0,0.879977583 0.3584,0.52798655 0.8,0.52798655 L47.2,0.52798655 C47.6416,0.52798655 48,0.879977583 48,1.32956613 L48,39.7285879 C48,40.1765765 47.6416,40.5285676 47.2,40.5285676 L47.2,40.5285676 Z" id="Fill-8442"></path>
                <path d="M46.4,10.127742 L1.6,10.127742 C1.1584,10.127742 0.8,9.77735093 0.8,9.32936234 C0.8,8.87977379 1.1584,8.52938272 1.6,8.52938272 L46.4,8.52938272 C46.8416,8.52938272 47.2,8.87977379 47.2,9.32936234 C47.2,9.77735093 46.8416,10.127742 46.4,10.127742" id="Fill-8443"></path>
                <path d="M16.4656,35.4390972 C16.2,35.4390972 15.9408,35.3127004 15.7872,35.0711066 L9.7024,25.4073528 C9.5296,25.1209601 9.5424,24.768969 9.7376,24.496976 L15.8224,16.2571859 C16.0832,15.9035949 16.584,15.8235969 16.9408,16.0795904 C17.2976,16.3515835 17.3712,16.8475708 17.1088,17.1995619 L11.3504,25.007363 L17.144,34.2231282 C17.3776,34.5927188 17.2656,35.0871062 16.8912,35.3271001 C16.76,35.407098 16.6112,35.4390972 16.4656,35.4390972" id="Fill-8444"></path>
                <path d="M32.3808,35.4390972 C32.2352,35.4390972 32.088,35.407098 31.9568,35.3271001 C31.5808,35.0871062 31.4688,34.5927188 31.7024,34.2231282 L37.4976,25.007363 L31.7376,17.1995619 C31.4752,16.8475708 31.5504,16.3515835 31.9056,16.0795904 C32.2624,15.8235969 32.7632,15.9035949 33.0256,16.2571859 L39.1088,24.496976 C39.304,24.768969 39.3168,25.1209601 39.144,25.4073528 L33.0576,35.0711066 C32.9056,35.3127004 32.6448,35.4390972 32.3808,35.4390972" id="Fill-8445"></path>
                <path d="M20.3808,33.6151437 C20.248,33.6151437 20.1152,33.5847444 19.9904,33.5207461 C19.6048,33.2967518 19.4672,32.8151641 19.6832,32.4151742 L27.6016,18.2571349 C27.8176,17.8715447 28.3024,17.7291484 28.6912,17.9515427 C29.0768,18.1595374 29.2144,18.6571247 28.9984,19.0411149 L21.08,33.2007542 C20.9328,33.4711473 20.6608,33.6151437 20.3808,33.6151437" id="Fill-8446"></path>
                <path d="M6.3808,5.72945405 C6.3808,6.28783982 5.9344,6.73582841 5.3808,6.73582841 C4.8304,6.73582841 4.3808,6.28783982 4.3808,5.72945405 C4.3808,5.16946831 4.8304,4.73587936 5.3808,4.73587936 C5.9344,4.73587936 6.3808,5.16946831 6.3808,5.72945405" id="Fill-8447"></path>
                <path d="M10.3808,5.72945405 C10.3808,6.28783982 9.9344,6.73582841 9.3808,6.73582841 C8.8304,6.73582841 8.3808,6.28783982 8.3808,5.72945405 C8.3808,5.16946831 8.8304,4.73587936 9.3808,4.73587936 C9.9344,4.73587936 10.3808,5.16946831 10.3808,5.72945405" id="Fill-8448"></path>
                <path d="M14.3808,5.72945405 C14.3808,6.28783982 13.9344,6.73582841 13.3808,6.73582841 C12.8304,6.73582841 12.3808,6.28783982 12.3808,5.72945405 C12.3808,5.16946831 12.8304,4.73587936 13.3808,4.73587936 C13.9344,4.73587936 14.3808,5.16946831 14.3808,5.72945405" id="Fill-8449"></path>
            </g>
        </g>
    </g>
</svg>