<?xml version="1.0" encoding="UTF-8" standalone="no"?>
<svg width="48px" height="48px" viewBox="0 0 48 48" version="1.1" xmlns="http://www.w3.org/2000/svg" xmlns:xlink="http://www.w3.org/1999/xlink">
    <!-- Generator: Sketch 46.2 (44496) - http://www.bohemiancoding.com/sketch -->
    <title>example_on</title>
    <desc>Created with Sketch.</desc>
    <defs></defs>
    <g id="Page-1" stroke="none" stroke-width="1" fill="none" fill-rule="evenodd">
        <g id="example_on" fill="#4D93E4">
            <g id="Fill-6014-+-Fill-6015" transform="translate(0.000000, 4.000000)">
                <path d="M38.936,24.28 L32.852,33.96 C32.66,34.262 32.336,34.422 32.004,34.422 C31.822,34.422 31.636,34.38 31.472,34.262 C31.004,33.98 30.864,33.362 31.158,32.9 L36.878,23.802 L31.2,16.1 C30.872,15.66 30.966,15.02 31.41,14.7 C31.856,14.382 32.482,14.46 32.808,14.9 L38.894,23.16 C39.136,23.5 39.154,23.94 38.936,24.28 L38.936,24.28 Z M28.794,17.9 L20.878,32.08 C20.696,32.4 20.356,32.58 20.004,32.58 C19.838,32.58 19.672,32.542 19.516,32.46 C19.036,32.2 18.864,31.58 19.132,31.1 L27.048,16.94 C27.32,16.462 27.926,16.28 28.41,16.54 C28.89,16.82 29.064,17.422 28.794,17.9 L28.794,17.9 Z M16.936,32.9 C17.23,33.362 17.088,33.98 16.622,34.262 C16.458,34.38 16.272,34.422 16.09,34.422 C15.758,34.422 15.434,34.262 15.242,33.96 L9.158,24.28 C8.94,23.94 8.958,23.5 9.2,23.16 L15.286,14.9 C15.614,14.46 16.238,14.382 16.684,14.7 C17.126,15.02 17.222,15.66 16.894,16.1 L11.214,23.802 L16.936,32.9 L16.936,32.9 Z M0.004,9.5 L0.004,38.5 C0.004,39.062 0.454,39.5 1.004,39.5 L47.004,39.5 C47.558,39.5 48.004,39.062 48.004,38.5 L48.004,9.5 L0.004,9.5 L0.004,9.5 Z" id="Fill-6014"></path>
                <path d="M5.004,3.5 C5.558,3.5 6.004,3.96 6.004,4.5 C6.004,5.06 5.558,5.5 5.004,5.5 C4.454,5.5 4.004,5.06 4.004,4.5 C4.004,3.96 4.454,3.5 5.004,3.5 L5.004,3.5 Z M9.004,3.5 C9.558,3.5 10.004,3.96 10.004,4.5 C10.004,5.06 9.558,5.5 9.004,5.5 C8.454,5.5 8.004,5.06 8.004,4.5 C8.004,3.96 8.454,3.5 9.004,3.5 L9.004,3.5 Z M13.004,3.5 C13.558,3.5 14.004,3.96 14.004,4.5 C14.004,5.06 13.558,5.5 13.004,5.5 C12.454,5.5 12.004,5.06 12.004,4.5 C12.004,3.96 12.454,3.5 13.004,3.5 L13.004,3.5 Z M48.004,7.5 L48.004,0.5 C48.004,-0.038 47.558,-0.5 47.004,-0.5 L1.004,-0.5 C0.454,-0.5 0.004,-0.038 0.004,0.5 L0.004,7.5 L48.004,7.5 L48.004,7.5 Z" id="Fill-6015"></path>
            </g>
        </g>
    </g>
</svg>