<?xml version="1.0" encoding="UTF-8" standalone="no"?>
<svg width="48px" height="48px" viewBox="0 0 48 48" version="1.1" xmlns="http://www.w3.org/2000/svg" xmlns:xlink="http://www.w3.org/1999/xlink">
    <!-- Generator: Sketch 46.2 (44496) - http://www.bohemiancoding.com/sketch -->
    <title>home_on</title>
    <desc>Created with Sketch.</desc>
    <defs></defs>
    <g id="Page-1" stroke="none" stroke-width="1" fill="none" fill-rule="evenodd">
        <g id="home_on" fill="#4D93E4">
            <g id="Fill-1734">
                <path d="M43.03,47.5 L29.03,47.5 C28.478,47.5 28.03,47.06 28.03,46.5 L28.03,33.5 L20.03,33.5 L20.03,46.5 C20.03,47.06 19.584,47.5 19.03,47.5 L5.03,47.5 C4.478,47.5 4.03,47.06 4.03,46.5 L4.03,21.5 L0.99,21.5 C0.572,21.5 0.2,21.24 0.052,20.84 C-0.094,20.46 0.018,20.022 0.334,19.74 L23.354,-0.26 C23.73,-0.58 24.288,-0.58 24.666,-0.26 L30.03,4.4 L30.03,0.5 C30.03,-0.058 30.478,-0.5 31.03,-0.5 L39.03,-0.5 C39.584,-0.5 40.03,-0.058 40.03,0.5 L40.03,13.042 L47.65,19.74 C47.962,20.022 48.072,20.46 47.924,20.862 C47.778,21.24 47.406,21.5 46.99,21.5 L44.03,21.5 L44.03,46.5 C44.03,47.06 43.584,47.5 43.03,47.5"></path>
            </g>
        </g>
    </g>
</svg>