<?xml version="1.0" encoding="UTF-8" standalone="no"?>
<svg width="48px" height="48px" viewBox="0 0 48 48" version="1.1" xmlns="http://www.w3.org/2000/svg" xmlns:xlink="http://www.w3.org/1999/xlink">
    <!-- Generator: Sketch 46.2 (44496) - http://www.bohemiancoding.com/sketch -->
    <title>home_off</title>
    <desc>Created with Sketch.</desc>
    <defs></defs>
    <g id="Page-1" stroke="none" stroke-width="1" fill="none" fill-rule="evenodd">
        <g id="home_off" fill="#818181">
            <g id="Fill-2609">
                <path d="M30.4,46.9284045 L43.2,46.9284045 L43.2,22.1274363 C43.2,21.6794477 43.5584,21.3274567 44,21.3274567 L45.3488,21.3274567 L38.6464,14.9116201 C38.4896,14.7516242 38.4,14.5436295 38.4,14.3356348 L38.4,2.12794579 L32,2.12794579 L32,7.40781129 C32,7.72780314 31.8224,7.99979621 31.5424,8.1453925 C31.2624,8.27178928 30.9312,8.22539046 30.6928,8.03339535 L24.2912,2.78392908 L3.4432,21.3274567 L5.6,21.3274567 C6.0416,21.3274567 6.4,21.6794477 6.4,22.1274363 L6.4,46.9284045 L19.2,46.9284045 L19.2,33.327151 C19.2,32.8791624 19.5584,32.5287713 20,32.5287713 L29.6,32.5287713 C30.0416,32.5287713 30.4,32.8791624 30.4,33.327151 L30.4,46.9284045 L30.4,46.9284045 Z M44,48.5267638 L29.6,48.5267638 C29.1584,48.5267638 28.8,48.1747728 28.8,47.7267842 L28.8,34.1271306 L20.8,34.1271306 L20.8,47.7267842 C20.8,48.1747728 20.4416,48.5267638 20,48.5267638 L5.6,48.5267638 C5.1584,48.5267638 4.8,48.1747728 4.8,47.7267842 L4.8,22.9290159 L1.3408,22.9290159 C1.008,22.9290159 0.7104,22.7194212 0.5936,22.415429 C0.4752,22.0970371 0.5616,21.7434461 0.808,21.5354514 L23.7376,1.13597106 C24.0336,0.863977991 24.472,0.863977991 24.7776,1.10397188 L30.4,5.72785409 L30.4,1.32956613 C30.4,0.879977583 30.7584,0.52798655 31.2,0.52798655 L39.2,0.52798655 C39.6416,0.52798655 40,0.879977583 40,1.32956613 L40,13.9836438 L47.8944,21.551451 C48.1296,21.7754453 48.2048,22.1274363 48.0832,22.4330285 C47.9616,22.7354208 47.6672,22.9290159 47.3408,22.9290159 L44.8,22.9290159 L44.8,47.7267842 C44.8,48.1747728 44.4416,48.5267638 44,48.5267638 L44,48.5267638 Z"></path>
            </g>
        </g>
    </g>
</svg>